<svg width="256" height="256" xmlns="http://www.w3.org/2000/svg">

 <g>
  <title>background</title>
  <rect fill="none" id="canvas_background" height="258" width="258" y="-1" x="-1"/>
 </g>
 <g>
  <title>Layer 1</title>
  <g stroke="null" fill-opacity="0.5" id="svg_1">
   <circle stroke="null" fill="#ffffff" id="svg_2" r="41.368301" cy="107.034921" cx="128.917083"/>
   <path stroke="null" fill="#ffffff" id="svg_3" d="m170.28541,158.745329l-82.736654,0c-15.389018,0 -28.66825,8.501191 -35.793945,20.984084c16.74383,24.758944 45.081134,41.068406 77.162272,41.068406s60.418441,-16.309463 77.162272,-41.068406c-7.136036,-12.482893 -20.404927,-20.984084 -35.793945,-20.984084z"/>
   <path stroke="null" fill="#ffffff" id="svg_4" d="m128.917083,3.614104c-68.536975,0 -124.10498,55.568005 -124.10498,124.10498s55.568005,124.10498 124.10498,124.10498s124.10498,-55.568005 124.10498,-124.10498s-55.568005,-124.10498 -124.10498,-124.10498zm0,227.525797c-57.026238,0 -103.420817,-46.394578 -103.420817,-103.420817s46.394578,-103.420817 103.420817,-103.420817s103.420817,46.394578 103.420817,103.420817s-46.394578,103.420817 -103.420817,103.420817z"/>
  </g>
 </g>
</svg>